<svg width="129" height="25" viewBox="0 0 129 25" fill="none" xmlns="http://www.w3.org/2000/svg">
<g id="Group">
<path id="Vector" d="M12.2187 12.4547C12.2187 15.5382 10.5069 19.1704 6.18892 19.1704C4.02719 19.1704 2.47447 18.1937 1.42104 16.7453V24.465H0V6.02987H1.21255L1.39909 8.08736C2.34828 6.74314 3.901 5.6897 6.19441 5.6897C10.1997 5.6897 12.2242 9.40415 12.2242 12.4602L12.2187 12.4547ZM1.3936 12.4547C1.3936 15.615 3.23711 17.9084 6.10662 17.9084C8.97613 17.9084 10.7922 15.6424 10.7922 12.4547C10.7922 9.26698 8.92127 6.95162 6.10662 6.95162C3.29198 6.95162 1.3936 9.29442 1.3936 12.4547Z" fill="#8E4B44"/>
<path id="Vector_2" d="M15.5107 0.367676H16.9318V18.8028H15.5107V0.367676Z" fill="#8E4B44"/>
<path id="Vector_3" d="M20.3554 15.3516C20.3554 12.9265 21.9904 11.7414 25.2001 11.2696L28.9694 10.7154V10.1613C28.9694 8.02697 27.8117 6.92415 25.4415 6.92415C23.0713 6.92415 22.1495 8.21351 21.9136 9.82109L20.5968 9.48092C20.9919 7.1107 22.7805 5.66223 25.3921 5.66223C28.6841 5.66223 30.3959 7.34662 30.3959 10.1668V18.8082H29.1834L29.0243 17.3872C28.2068 18.5174 26.8626 19.1758 24.838 19.1758C21.6009 19.1758 20.3609 17.1732 20.3609 15.3571L20.3554 15.3516ZM28.9694 14.1116V12.0322L25.4415 12.5589C23.3621 12.8771 21.7819 13.4532 21.7819 15.2968C21.7819 16.8769 23.0439 17.8535 25.0465 17.8535C27.0491 17.8535 28.9694 16.8001 28.9694 14.1116Z" fill="#8E4B44"/>
<path id="Vector_4" d="M44.7709 6.02991V19.0936C44.7709 21.5187 43.7175 24.7558 39.4214 24.7558C36.3654 24.7558 34.7358 23.0988 34.0775 20.7012L35.4711 20.3336C35.9703 22.3362 37.1555 23.4445 39.4214 23.4445C42.2635 23.4445 43.3444 21.6284 43.3444 19.1484V16.7782C42.1044 18.3309 40.8425 18.9893 38.6314 18.9893C36.5794 18.9893 34.0994 17.7768 34.0994 14.6439V6.02991H35.5204V13.9307C35.5204 16.855 37.0238 17.6725 39.0209 17.6725C41.3363 17.6725 43.3389 15.9881 43.3389 13.2229V6.02991H44.7599H44.7709Z" fill="#8E4B44"/>
<path id="Vector_5" d="M48.4031 20.6956L49.7747 20.328C50.3015 22.2758 51.5634 23.4883 53.9611 23.4883C57.253 23.4883 58.5973 21.6722 58.5973 19.1429V16.4819C57.7797 17.8261 56.1996 19.0386 53.8842 19.0386C49.5663 19.0386 47.7996 15.4284 47.7996 12.3998C47.7996 9.37119 49.7748 5.65674 53.8294 5.65674C56.1447 5.65674 57.6206 6.63336 58.5973 7.99953L58.8057 6.02434H60.0183V19.088C60.0183 21.5131 58.8057 24.7502 53.9611 24.7502C50.7459 24.7502 49.0889 23.0384 48.4031 20.6956ZM58.5973 12.3998C58.5973 9.21208 56.6989 6.92415 53.9336 6.92415C51.1684 6.92415 49.2206 9.21757 49.2206 12.3998C49.2206 15.5821 51.1409 17.7712 53.9885 17.7712C56.836 17.7712 58.5973 15.5601 58.5973 12.3998Z" fill="#8E4B44"/>
<path id="Vector_6" d="M63.9687 6.02983H65.1812L65.4171 7.81847C66.0481 6.66079 67.3375 5.65674 69.0273 5.65674C70.2124 5.65674 71.1068 6.05178 71.4524 6.37L70.794 7.55512C70.5307 7.31919 69.8448 7.0284 68.8957 7.0284C66.9753 7.0284 65.3952 8.87191 65.3952 11.5055V18.8027H63.9741V6.02983H63.9687Z" fill="#8E4B44"/>
<path id="Vector_7" d="M72.5004 12.3998C72.5004 9.23951 74.7115 5.65674 78.9801 5.65674C83.2487 5.65674 85.4872 9.23951 85.4872 12.3998C85.4872 15.5601 83.3035 19.1703 78.9801 19.1703C74.6566 19.1703 72.5004 15.5382 72.5004 12.3998ZM84.0607 12.3998C84.0607 9.31633 82.0087 6.92415 78.9801 6.92415C75.9515 6.92415 73.9214 9.32181 73.9214 12.3998C73.9214 15.4778 75.9515 17.9029 78.9801 17.9029C82.0087 17.9029 84.0607 15.4778 84.0607 12.3998Z" fill="#8E4B44"/>
<path id="Vector_8" d="M98.9953 18.8028H97.7828L97.5468 16.9867C96.4166 18.5394 94.8584 19.1704 93.0697 19.1704C90.7544 19.1704 88.7792 17.8536 88.7792 14.7207V6.02991H90.2002V14.2489C90.2002 17.1733 91.7036 17.8591 93.4922 17.8591C95.5223 17.8591 97.5743 16.1747 97.5743 13.4314V6.02991H98.9953V18.8028Z" fill="#8E4B44"/>
<path id="Vector_9" d="M102.946 6.02983H104.158L104.394 7.84591C105.524 6.29319 107.083 5.66223 108.871 5.66223C111.187 5.66223 113.162 6.97902 113.162 10.1119V18.8027H111.741V10.5837C111.741 7.65937 110.237 6.97354 108.449 6.97354C106.419 6.97354 104.367 8.65793 104.367 11.3958V18.7972H102.946V6.02434V6.02983Z" fill="#8E4B44"/>
<path id="Vector_10" d="M116.454 12.3724C116.454 9.28893 118.166 5.65678 122.484 5.65678C124.645 5.65678 126.198 6.6334 127.251 8.08187V0.362183H128.673V18.7973H127.46L127.273 16.7453C126.324 18.0895 124.772 19.1429 122.478 19.1429C118.473 19.1429 116.448 15.4285 116.448 12.3724H116.454ZM127.279 12.3724C127.279 9.21212 125.435 6.91871 122.566 6.91871C119.696 6.91871 117.88 9.18469 117.88 12.3724C117.88 15.5602 119.751 17.8755 122.566 17.8755C125.381 17.8755 127.279 15.5327 127.279 12.3724Z" fill="#8E4B44"/>
</g>
</svg>
