<svg width="44" height="44" viewBox="0 0 44 44" fill="none" xmlns="http://www.w3.org/2000/svg">
<g id="Iconos RRSS Mobile">
<path id="Vector" d="M22 10C19.6266 10 17.3066 10.7038 15.3332 12.0224C13.3598 13.3409 11.8217 15.2151 10.9135 17.4078C10.0052 19.6005 9.76756 22.0133 10.2306 24.3411C10.6936 26.6689 11.8365 28.807 13.5147 30.4853C15.193 32.1635 17.3311 33.3064 19.6589 33.7694C21.9867 34.2324 24.3995 33.9948 26.5922 33.0865C28.7849 32.1783 30.6591 30.6402 31.9776 28.6668C33.2962 26.6934 34 24.3734 34 22C33.9966 18.8184 32.7313 15.7681 30.4816 13.5184C28.2319 11.2687 25.1816 10.0034 22 10ZM22.9231 32.1112V24.7692H25.6923C25.9371 24.7692 26.1719 24.672 26.345 24.4989C26.5181 24.3258 26.6154 24.091 26.6154 23.8462C26.6154 23.6013 26.5181 23.3665 26.345 23.1934C26.1719 23.0203 25.9371 22.9231 25.6923 22.9231H22.9231V20.1538C22.9231 19.6642 23.1176 19.1946 23.4638 18.8484C23.81 18.5022 24.2796 18.3077 24.7692 18.3077H26.6154C26.8602 18.3077 27.095 18.2104 27.2681 18.0373C27.4412 17.8642 27.5385 17.6294 27.5385 17.3846C27.5385 17.1398 27.4412 16.905 27.2681 16.7319C27.095 16.5588 26.8602 16.4615 26.6154 16.4615H24.7692C23.79 16.4615 22.8508 16.8505 22.1584 17.543C21.4659 18.2354 21.0769 19.1746 21.0769 20.1538V22.9231H18.3077C18.0629 22.9231 17.8281 23.0203 17.655 23.1934C17.4819 23.3665 17.3846 23.6013 17.3846 23.8462C17.3846 24.091 17.4819 24.3258 17.655 24.4989C17.8281 24.672 18.0629 24.7692 18.3077 24.7692H21.0769V32.1112C18.4748 31.8736 16.0643 30.642 14.347 28.6726C12.6298 26.7032 11.7378 24.1476 11.8567 21.5373C11.9756 18.9271 13.0962 16.4631 14.9854 14.658C16.8746 12.8528 19.387 11.8455 22 11.8455C24.613 11.8455 27.1254 12.8528 29.0146 14.658C30.9038 16.4631 32.0244 18.9271 32.1433 21.5373C32.2622 24.1476 31.3703 26.7032 29.653 28.6726C27.9357 30.642 25.5252 31.8736 22.9231 32.1112Z" fill="#FFFEF6"/>
</g>
</svg>
