<svg width="44" height="44" viewBox="0 0 44 44" fill="none" xmlns="http://www.w3.org/2000/svg">
<g id="Iconos RRSS Mobile">
<path id="Vector" d="M32.1538 10H11.8462C11.3565 10 10.8869 10.1945 10.5407 10.5407C10.1945 10.8869 10 11.3565 10 11.8462V32.1538C10 32.6435 10.1945 33.1131 10.5407 33.4593C10.8869 33.8055 11.3565 34 11.8462 34H32.1538C32.6435 34 33.1131 33.8055 33.4593 33.4593C33.8055 33.1131 34 32.6435 34 32.1538V11.8462C34 11.3565 33.8055 10.8869 33.4593 10.5407C33.1131 10.1945 32.6435 10 32.1538 10ZM32.1538 32.1538H11.8462V11.8462H32.1538V32.1538ZM18.3077 20.1538V27.5385C18.3077 27.7833 18.2104 28.0181 18.0373 28.1912C17.8642 28.3643 17.6294 28.4615 17.3846 28.4615C17.1398 28.4615 16.905 28.3643 16.7319 28.1912C16.5588 28.0181 16.4615 27.7833 16.4615 27.5385V20.1538C16.4615 19.909 16.5588 19.6742 16.7319 19.5011C16.905 19.328 17.1398 19.2308 17.3846 19.2308C17.6294 19.2308 17.8642 19.328 18.0373 19.5011C18.2104 19.6742 18.3077 19.909 18.3077 20.1538ZM28.4615 23.3846V27.5385C28.4615 27.7833 28.3643 28.0181 28.1912 28.1912C28.0181 28.3643 27.7833 28.4615 27.5385 28.4615C27.2936 28.4615 27.0589 28.3643 26.8857 28.1912C26.7126 28.0181 26.6154 27.7833 26.6154 27.5385V23.3846C26.6154 22.7726 26.3723 22.1856 25.9395 21.7528C25.5067 21.3201 24.9197 21.0769 24.3077 21.0769C23.6957 21.0769 23.1087 21.3201 22.6759 21.7528C22.2431 22.1856 22 22.7726 22 23.3846V27.5385C22 27.7833 21.9027 28.0181 21.7296 28.1912C21.5565 28.3643 21.3217 28.4615 21.0769 28.4615C20.8321 28.4615 20.5973 28.3643 20.4242 28.1912C20.2511 28.0181 20.1538 27.7833 20.1538 27.5385V20.1538C20.155 19.9277 20.2391 19.7099 20.3902 19.5417C20.5413 19.3735 20.7488 19.2666 20.9735 19.2413C21.1982 19.2159 21.4244 19.2739 21.6091 19.4043C21.7938 19.5347 21.9243 19.7283 21.9758 19.9485C22.6002 19.5249 23.3283 19.2793 24.0817 19.2383C24.8352 19.1972 25.5856 19.3622 26.2523 19.7155C26.9191 20.0687 27.4771 20.5969 27.8663 21.2434C28.2555 21.8898 28.4613 22.63 28.4615 23.3846ZM18.7692 16.9231C18.7692 17.1969 18.688 17.4646 18.5359 17.6923C18.3837 17.92 18.1675 18.0975 17.9145 18.2023C17.6615 18.3071 17.3831 18.3345 17.1145 18.2811C16.8459 18.2277 16.5992 18.0958 16.4055 17.9021C16.2119 17.7085 16.08 17.4618 16.0266 17.1932C15.9732 16.9246 16.0006 16.6462 16.1054 16.3932C16.2102 16.1402 16.3877 15.924 16.6154 15.7718C16.8431 15.6197 17.1108 15.5385 17.3846 15.5385C17.7518 15.5385 18.104 15.6843 18.3637 15.944C18.6234 16.2037 18.7692 16.5559 18.7692 16.9231Z" fill="#FFFEF6"/>
</g>
</svg>
