<svg width="44" height="44" viewBox="0 0 44 44" fill="none" xmlns="http://www.w3.org/2000/svg">
<g id="Iconos RRSS Mobile">
<path id="Vector" d="M22 16.4615C20.9046 16.4615 19.8338 16.7864 18.923 17.3949C18.0122 18.0035 17.3023 18.8685 16.8831 19.8805C16.4639 20.8925 16.3543 22.0061 16.568 23.0805C16.7817 24.1549 17.3091 25.1417 18.0837 25.9163C18.8583 26.6909 19.8451 27.2183 20.9195 27.432C21.9939 27.6457 23.1075 27.5361 24.1195 27.1169C25.1315 26.6977 25.9965 25.9878 26.6051 25.077C27.2136 24.1662 27.5385 23.0954 27.5385 22C27.5369 20.5316 26.9529 19.1237 25.9146 18.0854C24.8763 17.0471 23.4684 16.4631 22 16.4615ZM22 25.6923C21.2697 25.6923 20.5559 25.4758 19.9487 25.07C19.3415 24.6643 18.8682 24.0877 18.5888 23.413C18.3093 22.7383 18.2362 21.9959 18.3786 21.2797C18.5211 20.5634 18.8728 19.9055 19.3891 19.3891C19.9055 18.8728 20.5634 18.5211 21.2797 18.3786C21.9959 18.2362 22.7383 18.3093 23.413 18.5888C24.0877 18.8682 24.6643 19.3415 25.07 19.9487C25.4758 20.5559 25.6923 21.2697 25.6923 22C25.6923 22.9793 25.3033 23.9184 24.6109 24.6109C23.9184 25.3033 22.9793 25.6923 22 25.6923ZM27.5385 10H16.4615C14.7484 10.0018 13.1059 10.6832 11.8946 11.8946C10.6832 13.1059 10.0018 14.7484 10 16.4615V27.5385C10.0018 29.2516 10.6832 30.8941 11.8946 32.1054C13.1059 33.3168 14.7484 33.9982 16.4615 34H27.5385C29.2516 33.9982 30.8941 33.3168 32.1054 32.1054C33.3168 30.8941 33.9982 29.2516 34 27.5385V16.4615C33.9982 14.7484 33.3168 13.1059 32.1054 11.8946C30.8941 10.6832 29.2516 10.0018 27.5385 10ZM32.1538 27.5385C32.1538 28.7625 31.6676 29.9365 30.802 30.802C29.9365 31.6676 28.7625 32.1538 27.5385 32.1538H16.4615C15.2375 32.1538 14.0635 31.6676 13.198 30.802C12.3324 29.9365 11.8462 28.7625 11.8462 27.5385V16.4615C11.8462 15.2375 12.3324 14.0635 13.198 13.198C14.0635 12.3324 15.2375 11.8462 16.4615 11.8462H27.5385C28.7625 11.8462 29.9365 12.3324 30.802 13.198C31.6676 14.0635 32.1538 15.2375 32.1538 16.4615V27.5385ZM29.3846 16C29.3846 16.2739 29.3034 16.5416 29.1513 16.7693C28.9991 16.9969 28.7829 17.1744 28.5299 17.2792C28.2769 17.384 27.9985 17.4114 27.7299 17.358C27.4613 17.3046 27.2146 17.1727 27.0209 16.9791C26.8273 16.7854 26.6954 16.5387 26.642 16.2701C26.5886 16.0015 26.616 15.7231 26.7208 15.4701C26.8256 15.2171 27.0031 15.0009 27.2307 14.8487C27.4584 14.6966 27.7261 14.6154 28 14.6154C28.3672 14.6154 28.7194 14.7613 28.9791 15.0209C29.2387 15.2806 29.3846 15.6328 29.3846 16Z" fill="#FFFEF6"/>
</g>
</svg>
