<svg width="504" height="422" viewBox="0 0 504 422" fill="none" xmlns="http://www.w3.org/2000/svg">
<rect width="504" height="422" fill="white"/>
<rect x="0.5" y="0.5" width="503" height="421" fill="#E4D6AE" stroke="black"/>
<path d="M102.397 276L105.869 256.4H117.741L117.377 258.36H107.689L106.485 265.136H115.025L114.689 267.068H106.149L104.917 274.04H114.605L114.269 276H102.397ZM117.757 276L120.165 262.28H121.957L121.929 264.072C123.273 262.588 124.953 261.888 126.829 261.888C129.209 261.888 130.861 263.092 130.861 265.696C130.861 266.116 130.833 266.592 130.721 267.096L129.153 276H127.025L128.537 267.46C128.621 267.04 128.649 266.648 128.649 266.312C128.649 264.38 127.501 263.876 126.017 263.876C123.973 263.876 121.733 265.5 121.229 268.244L119.885 276H117.757ZM137.577 260.04C136.709 260.04 136.121 259.396 136.121 258.584C136.121 257.632 136.961 256.848 137.885 256.848C138.725 256.848 139.313 257.464 139.313 258.304C139.313 259.228 138.529 260.04 137.577 260.04ZM131.193 282.272C129.373 282.272 128.757 281.404 128.645 281.292L130.017 279.836C130.101 280.06 130.493 280.312 131.165 280.312C132.257 280.312 132.929 279.584 133.125 278.436L135.981 262.28H138.109L135.197 278.66C134.833 280.788 133.181 282.272 131.193 282.272ZM146.098 276.392C142.122 276.392 140.134 273.592 140.134 270.4C140.134 266.844 143.102 261.888 148.394 261.888C152.342 261.888 154.386 264.716 154.386 267.88C154.386 271.464 151.474 276.392 146.098 276.392ZM146.238 274.46C149.934 274.46 152.286 270.96 152.286 267.964C152.286 265.556 150.746 263.82 148.254 263.82C144.502 263.82 142.262 267.404 142.262 270.316C142.262 272.752 143.746 274.46 146.238 274.46ZM168.435 262.28H170.563L168.127 276.084C167.623 279.108 165.607 282.216 161.183 282.216C157.795 282.216 156.283 280.34 156.031 277.82L158.075 277.428C158.215 279.304 159.167 280.312 161.295 280.312C164.039 280.312 165.551 278.576 165.999 276.028L166.363 273.984C165.019 275.412 163.395 276.084 161.547 276.084C159.167 276.084 157.515 274.908 157.515 272.276C157.515 271.856 157.543 271.38 157.627 270.876L159.167 262.28H161.295L159.811 270.512C159.755 270.932 159.727 271.352 159.727 271.688C159.727 273.62 160.875 274.096 162.359 274.096C164.347 274.096 166.531 272.556 167.063 269.952L168.435 262.28ZM185.902 276.364C182.29 276.364 180.442 273.508 180.442 270.428C180.442 267.796 182.486 261.888 188.282 261.888C190.522 261.888 191.978 262.98 192.734 264.324L193.098 262.28H195.226L192.818 276H191.026L191.11 273.984C189.99 275.244 188.282 276.364 185.902 276.364ZM186.35 274.46C190.046 274.46 192.062 270.764 192.062 267.852C192.062 265.444 190.662 263.792 188.254 263.792C184.698 263.792 182.57 267.32 182.57 270.344C182.57 272.78 183.998 274.46 186.35 274.46ZM196.507 276L198.915 262.28H200.707L200.679 264.072C202.023 262.588 203.703 261.888 205.579 261.888C207.959 261.888 209.611 263.092 209.611 265.696C209.611 266.116 209.583 266.592 209.471 267.096L207.903 276H205.775L207.287 267.46C207.371 267.04 207.399 266.648 207.399 266.312C207.399 264.38 206.251 263.876 204.767 263.876C202.723 263.876 200.483 265.5 199.979 268.244L198.635 276H196.507ZM217.699 276.364C214.087 276.364 212.239 273.508 212.239 270.428C212.239 267.796 214.283 261.888 220.107 261.888C222.319 261.888 223.803 262.98 224.531 264.324L225.959 256.4H228.087L224.615 276H222.851L222.935 273.984C221.787 275.244 220.107 276.364 217.699 276.364ZM218.175 274.46C221.843 274.46 223.859 270.764 223.859 267.852C223.859 265.444 222.459 263.792 220.051 263.792C216.495 263.792 214.395 267.32 214.395 270.344C214.395 272.78 215.795 274.46 218.175 274.46ZM242.674 276.392C238.754 276.392 236.822 273.62 236.822 270.428C236.822 266.788 239.706 261.888 244.998 261.888C248.274 261.888 249.954 263.82 250.346 266.116L248.33 266.676C248.022 264.912 246.79 263.82 244.858 263.82C241.134 263.82 238.95 267.404 238.95 270.344C238.95 272.78 240.434 274.46 242.842 274.46C244.83 274.46 246.566 273.228 247.49 271.38L249.338 272.164C248.078 274.544 245.754 276.392 242.674 276.392ZM258.344 276.392C254.368 276.392 252.38 273.592 252.38 270.4C252.38 266.844 255.348 261.888 260.64 261.888C264.588 261.888 266.632 264.716 266.632 267.88C266.632 271.464 263.72 276.392 258.344 276.392ZM258.484 274.46C262.18 274.46 264.532 270.96 264.532 267.964C264.532 265.556 262.992 263.82 260.5 263.82C256.748 263.82 254.508 267.404 254.508 270.316C254.508 272.752 255.992 274.46 258.484 274.46ZM268.585 276L270.993 262.28H272.785L272.757 264.072C274.101 262.588 275.781 261.888 277.657 261.888C280.037 261.888 281.689 263.092 281.689 265.696C281.689 266.116 281.661 266.592 281.549 267.096L279.981 276H277.853L279.365 267.46C279.449 267.04 279.477 266.648 279.477 266.312C279.477 264.38 278.329 263.876 276.845 263.876C274.801 263.876 272.561 265.5 272.057 268.244L270.713 276H268.585ZM283.925 276L286.333 262.28H288.125L288.097 264.072C289.441 262.588 291.121 261.888 292.997 261.888C295.377 261.888 297.029 263.092 297.029 265.696C297.029 266.116 297.001 266.592 296.889 267.096L295.321 276H293.193L294.705 267.46C294.789 267.04 294.817 266.648 294.817 266.312C294.817 264.38 293.669 263.876 292.185 263.876C290.141 263.876 287.901 265.5 287.397 268.244L286.053 276H283.925ZM312.957 269.728H301.813C301.757 270.008 301.729 270.288 301.729 270.54C301.729 272.892 303.213 274.572 305.677 274.572C307.861 274.572 309.597 273.312 310.297 271.912L312.061 272.5C310.997 274.516 308.869 276.392 305.565 276.392C301.897 276.392 299.685 273.844 299.685 270.54C299.685 266.48 302.821 261.888 307.693 261.888C310.941 261.888 313.237 264.016 313.237 267.376C313.237 267.824 313.209 268.328 313.125 268.804L312.957 269.728ZM311.249 267.964C311.277 267.796 311.277 267.628 311.277 267.488C311.277 265.332 309.933 263.708 307.581 263.708C304.893 263.708 302.877 265.612 302.121 267.964H311.249ZM321.397 276.392C317.477 276.392 315.545 273.62 315.545 270.428C315.545 266.788 318.429 261.888 323.721 261.888C326.997 261.888 328.677 263.82 329.069 266.116L327.053 266.676C326.745 264.912 325.513 263.82 323.581 263.82C319.857 263.82 317.673 267.404 317.673 270.344C317.673 272.78 319.157 274.46 321.565 274.46C323.553 274.46 325.289 273.228 326.213 271.38L328.061 272.164C326.801 274.544 324.477 276.392 321.397 276.392ZM334.864 276.392C332.988 276.392 331.924 275.3 331.924 273.592C331.924 273.34 331.952 273.032 332.008 272.752L333.52 264.212H330.972L331.308 262.28H333.856L334.472 258.696H336.6L335.984 262.28H339.96L339.624 264.212H335.648L334.136 272.668C334.108 272.892 334.08 273.06 334.08 273.228C334.08 274.096 334.556 274.404 335.368 274.404C336.068 274.404 336.656 274.096 336.964 273.816L337.832 275.356C337.44 275.776 336.376 276.392 334.864 276.392Z" fill="#FFFEF6"/>
<path d="M111.893 169.576C109.909 169.576 108.309 167.912 108.309 165.928C108.309 163.944 109.909 162.344 111.893 162.344C113.877 162.344 115.477 163.944 115.477 165.928C115.477 167.912 113.877 169.576 111.893 169.576ZM113.365 177.64H114.709V216.104C114.709 220.84 112.149 223.144 108.821 223.144C104.533 223.144 102.165 219.56 101.397 217.384C101.141 216.68 102.037 216.488 102.293 217C103.317 219.176 105.109 220.264 107.029 220.264C108.629 220.264 110.165 219.368 110.165 216.552V183.72C110.165 181.544 109.397 181.288 104.021 181.8C103.381 181.864 103.253 181.864 103.189 181.352C103.125 180.904 103.381 180.84 104.021 180.712C109.333 179.624 111.125 178.728 113.365 177.64ZM152.493 202.856C152.813 202.408 153.645 202.856 153.325 203.56C152.301 205.736 150.829 209.32 147.757 209.32C144.493 209.32 142.573 206.888 142.573 203.432V202.408C139.565 206.888 136.365 209.576 132.909 209.576C128.173 209.576 125.101 206.952 125.101 200.488V182.952C125.101 180.264 123.565 179.432 120.621 179.432C120.173 179.432 120.173 178.28 120.621 178.28H129.645V198.12C129.645 202.984 130.733 205.992 135.085 205.992C136.557 205.992 139.245 205.288 142.573 200.68V182.952C142.573 180.264 140.845 179.432 136.621 179.432C136.173 179.432 136.173 178.28 136.621 178.28H147.117V202.728C147.117 204.456 147.885 205.16 148.973 205.16C150.253 205.16 151.341 204.456 152.493 202.856ZM187.82 207.848C188.268 207.848 188.268 209 187.82 209C187.372 209 182.38 208.872 181.1 208.872C179.756 208.872 173.484 209 173.036 209C172.588 209 172.588 207.848 173.036 207.848C177.26 207.848 178.796 207.016 178.796 204.328V188.776C178.796 183.912 177.068 180.904 172.716 180.904C171.244 180.904 169.004 181.16 165.548 185.768V204.328C165.548 207.016 167.084 207.848 171.308 207.848C171.564 207.848 171.628 208.104 171.628 208.424C171.628 208.68 171.564 209 171.308 209C170.86 209 164.588 208.872 163.308 208.872C161.964 208.872 155.692 209 155.244 209C155.052 209 154.924 208.68 154.924 208.424C154.924 208.104 155.052 207.848 155.244 207.848C159.468 207.848 161.004 207.016 161.004 204.328V183.72C161.004 181.544 160.236 181.288 154.86 181.8C154.476 181.864 154.412 180.776 154.86 180.712C160.172 179.624 162.604 178.728 164.844 177.64H165.548V184.168C169.068 179.432 172.012 177.32 175.916 177.32C180.268 177.32 183.34 179.944 183.34 186.408V204.328C183.34 207.016 184.876 207.848 187.82 207.848ZM204.838 209.896C195.494 209.896 190.886 201.32 190.886 193.768C190.886 186.216 195.494 177.32 204.838 177.32C214.118 177.32 218.726 186.216 218.726 193.768C218.726 201.32 214.118 209.896 204.838 209.896ZM205.798 208.36C211.302 208.04 213.67 201.64 213.094 193.064C212.454 184.36 209.382 178.408 203.878 178.728C198.246 179.048 195.814 185.768 196.454 194.408C197.158 203.112 200.23 208.68 205.798 208.36ZM242.676 209H241.656L241.596 197C241.596 196.58 242.916 196.58 242.976 197C243.456 203.66 246.576 207.92 251.196 207.92C254.556 207.92 256.716 206.12 256.716 203.12C256.716 200.54 255.156 198.62 252.276 197.18L248.556 195.32C243.516 192.8 241.896 189.92 241.896 187.22C241.896 183.02 245.016 179.72 250.596 179.72C254.196 179.72 255.456 180.62 257.256 180.62C257.796 180.62 258.096 180.26 258.216 180.14H258.756V188.48C258.756 188.84 257.616 188.9 257.616 188.48C257.256 182.78 255.096 180.92 250.896 180.92C247.956 180.92 246.096 182.54 246.096 184.94C246.096 187.04 246.876 188.84 250.296 190.7L255.756 193.7C258.396 195.14 261.096 197.24 261.096 201.5C261.096 205.94 257.736 209.48 252.156 209.48C247.356 209.48 245.556 207.5 243.756 207.5C242.916 207.5 242.736 208.16 242.676 209ZM278.392 209.84C269.632 209.84 265.312 201.8 265.312 194.72C265.312 187.64 269.632 179.3 278.392 179.3C287.092 179.3 291.412 187.64 291.412 194.72C291.412 201.8 287.092 209.84 278.392 209.84ZM279.292 208.4C284.452 208.1 286.672 202.1 286.132 194.06C285.532 185.9 282.652 180.32 277.492 180.62C272.212 180.92 269.932 187.22 270.532 195.32C271.192 203.48 274.072 208.7 279.292 208.4ZM320.131 198.62C320.551 198.62 320.431 199.28 320.251 199.94C318.931 204.02 315.331 209.84 309.151 209.84C301.351 209.84 296.191 203.42 296.191 194.54C296.191 185.6 302.251 179.36 308.791 179.36C314.731 179.36 318.211 183.98 319.291 187.7C319.591 188.96 319.831 190.28 318.091 191.24C316.351 192.14 315.091 191.06 315.091 190.04C315.091 183.92 312.031 179.72 306.931 180.74C302.611 181.64 300.571 187.58 300.571 192.14C300.571 201.2 305.551 206.18 310.411 206.18C315.151 206.18 317.851 203 319.531 199.16C319.711 198.8 319.831 198.62 320.131 198.62ZM330.792 172.04C328.932 172.04 327.432 170.48 327.432 168.62C327.432 166.76 328.932 165.26 330.792 165.26C332.652 165.26 334.152 166.76 334.152 168.62C334.152 170.48 332.652 172.04 330.792 172.04ZM333.492 179.6V204.62C333.492 207.14 334.932 207.92 338.892 207.92C339.132 207.92 339.192 208.16 339.192 208.46C339.192 208.7 339.132 209 338.892 209C338.472 209 332.592 208.88 331.392 208.88C330.132 208.88 324.252 209 323.832 209C323.652 209 323.532 208.7 323.532 208.46C323.532 208.16 323.652 207.92 323.832 207.92C327.792 207.92 329.232 207.14 329.232 204.62V185.3C329.232 183.26 328.512 183.02 323.472 183.5C323.112 183.56 323.052 182.54 323.472 182.48C328.452 181.46 330.732 180.62 332.832 179.6H333.492ZM367.944 203C368.244 202.58 369.024 202.82 368.724 203.48C367.764 205.52 366.384 209.24 362.904 209.24C360.444 209.24 358.644 206.72 358.644 203.48V202.82C356.424 207.08 353.184 209.84 349.044 209.84C345.564 209.84 341.544 208.34 341.544 202.58C341.544 199.64 343.884 197 347.124 195.74C354.084 193.1 358.104 192.14 358.644 186.92V185.84C358.644 182.36 357.324 180.98 355.104 180.98C351.444 180.98 349.464 183.8 347.844 189.86C347.484 191.12 346.884 191.42 345.144 190.82C342.744 189.98 342.144 188.54 343.524 187.04C348.744 181.4 351.984 179.78 355.284 179.78C360.024 179.78 362.904 181.76 362.904 187.22V202.7C362.904 204.14 363.504 205.22 364.644 205.22C365.844 205.22 366.744 204.44 367.944 203ZM350.784 206.96C354.504 206.96 356.844 204.2 358.644 200.3V192.08C357.324 194.3 353.904 195.92 350.844 197.06C348.144 198.08 346.524 200.12 346.524 202.52C346.524 205.52 348.324 206.96 350.784 206.96ZM385.905 208.16C385.965 208.4 385.905 208.7 385.845 208.88C385.785 208.94 385.725 209 385.605 209C385.185 209 379.305 208.88 378.105 208.88C376.845 208.88 370.965 209 370.545 209C370.125 209 370.125 207.92 370.545 207.92C374.505 207.92 375.945 207.14 375.945 204.62V170.3C375.945 168.26 375.225 168.02 370.185 168.5C369.585 168.56 369.465 168.56 369.405 168.08C369.345 167.66 369.585 167.6 370.185 167.48C375.165 166.46 376.845 165.62 378.945 164.6H380.205V204.62C380.205 207.14 381.645 207.92 385.605 207.92C385.785 207.92 385.845 208.04 385.905 208.16Z" fill="#FFFEF6"/>
</svg>
