<svg width="250" height="43" viewBox="0 0 250 43" fill="none" xmlns="http://www.w3.org/2000/svg">
<g id="Logo Animation 3" clip-path="url(#clip0_5_888)">
<path id="3" d="M43.4118 42.3465H22.4694V35.8744H21.5024C18.9374 35.8744 16.3713 35.8573 13.8063 35.8865C13.201 35.8939 12.9976 35.7319 13 35.101C13.0219 28.9821 12.9732 22.8632 13.0256 16.7443C13.0694 11.5985 17.1556 7.18841 22.2794 6.64887C22.931 6.58066 23.322 6.37118 23.646 5.72933C25.6458 1.76861 30.1814 -0.574688 34.3504 0.121969C39.1819 0.92824 42.6384 4.31531 43.3618 8.97146C43.4374 9.45864 43.4459 9.96042 43.4471 10.4549C43.452 20.8183 43.4508 31.1817 43.4495 41.5451C43.4495 41.7886 43.4276 42.0322 43.413 42.3452L43.4118 42.3465ZM30.9329 13.2415C29.2351 9.81549 25.2877 7.99712 21.6376 8.88255C17.6489 9.84959 15.1229 13.1587 15.107 17.5006C15.0888 22.6769 15.1022 27.8543 15.1046 33.0305C15.1046 33.2424 15.1363 33.4531 15.1545 33.693H22.4487C22.4487 33.3459 22.4487 33.05 22.4487 32.7552C22.4487 29.6982 22.428 26.6424 22.4548 23.5866C22.478 20.8987 23.3707 18.5286 25.183 16.5202C26.7273 14.8078 28.659 13.7689 30.9329 13.2428V13.2415ZM41.3182 40.2078C41.3182 39.8387 41.3182 39.5391 41.3182 39.2395C41.3182 34.0292 41.3048 28.8189 41.3242 23.6086C41.3328 21.3408 40.5509 19.4018 39.0065 17.7771C37.6424 16.3412 35.9678 15.4886 33.9521 15.2584V35.8926H24.6288V40.2078H41.3182ZM25.5131 6.70976C29.0353 7.55988 31.5284 9.49761 33.0764 12.6447C33.186 12.8664 33.5478 13.071 33.8096 13.0954C36.444 13.3414 38.674 14.4071 40.5229 16.2876C40.7433 16.5117 40.9674 16.7333 41.3169 17.0853C41.3169 14.8224 41.3169 12.7361 41.3169 10.651C41.3133 5.18978 36.5585 1.25586 31.2203 2.35322C28.6833 2.8745 26.8053 4.33967 25.5118 6.71098L25.5131 6.70976ZM31.8938 33.7393C31.8219 27.5072 31.9876 21.4187 31.7988 15.3059C28.0049 15.8662 24.954 18.8343 24.7165 22.4588C24.4802 26.0517 24.6057 29.6678 24.5996 33.2741C24.5996 33.4288 24.8639 33.7186 25.0076 33.7211C27.2608 33.7491 29.514 33.7405 31.8938 33.7405V33.7393Z" fill="#8E4B44"/>
</g>
<defs>
<clipPath id="clip0_5_888">
<rect width="250" height="42.4218" fill="white"/>
</clipPath>
</defs>
</svg>
